M48
INCH,TZ
T1C0.0118
T2C0.0157
T3C0.0236
T4C0.0394
T5C0.0402
%
G90
G05
T1
X41522Y-29961
X43962Y-27662
X44588Y-28348
T2
X33950Y-32500
X36500Y-31500
X36500Y-30500
X41528Y-29506
X42263Y-26836
X43700Y-27350
X44945Y-28043
T3
X38500Y-26550
T4
X70000Y-26500
X70000Y-27500
X70000Y-28500
X70000Y-29500
X33000Y-21500
X33000Y-22500
X33000Y-23500
X33000Y-24500
X33000Y-25500
X33000Y-26500
X33000Y-27500
X33000Y-28500
X33000Y-29500
X33000Y-30500
X33000Y-31500
X33000Y-32500
X33000Y-33500
X33000Y-34500
X45900Y-30000
X46900Y-30000
X47900Y-30000
X48900Y-30000
X49900Y-30000
X50900Y-30000
X51900Y-30000
X52900Y-30000
X53900Y-30000
X54900Y-30000
X55900Y-30000
X56900Y-30000
X57900Y-30000
X58900Y-30000
X59900Y-30000
X60900Y-30000
X61900Y-30000
X62900Y-30000
X63900Y-30000
X64900Y-30000
X45900Y-19000
X46900Y-19000
X47900Y-19000
X48900Y-19000
X49900Y-19000
X50900Y-19000
X51900Y-19000
X52900Y-19000
X53900Y-19000
X54900Y-19000
X55900Y-19000
X56900Y-19000
X57900Y-19000
X58900Y-19000
X59900Y-19000
X60900Y-19000
X61900Y-19000
X62900Y-19000
X63900Y-19000
X64900Y-19000
X66900Y-23500
X66900Y-24500
X66900Y-25500
T5
X45900Y-21000
X45900Y-28000
X46900Y-21000
X46900Y-28000
X47900Y-21000
X47900Y-28000
X48900Y-21000
X48900Y-28000
X49900Y-21000
X49900Y-28000
X50900Y-21000
X50900Y-28000
X51900Y-21000
X51900Y-28000
X52900Y-21000
X52900Y-28000
X53900Y-21000
X53900Y-28000
X54900Y-21000
X54900Y-28000
X55900Y-21000
X55900Y-28000
X56900Y-21000
X56900Y-28000
X57900Y-21000
X57900Y-28000
X58900Y-21000
X58900Y-28000
X59900Y-21000
X59900Y-28000
X60900Y-21000
X60900Y-28000
X61900Y-21000
X61900Y-28000
X62900Y-21000
X62900Y-28000
X63900Y-21000
X63900Y-28000
X64809Y-23500
X64809Y-24500
X64809Y-25500
X64900Y-21000
X64900Y-28000
T0
M30
